<svg width="34" height="34" viewBox="0 0 34 34" fill="none" xmlns="http://www.w3.org/2000/svg">
<path d="M22.6667 22.6667L17 17L11.3333 22.6667" stroke="#606266" stroke-width="2" stroke-linecap="round" stroke-linejoin="round"/>
<path d="M17 17V29.75" stroke="#606266" stroke-width="2" stroke-linecap="round" stroke-linejoin="round"/>
<path d="M28.8858 26.0525C30.2676 25.2992 31.3591 24.1072 31.9882 22.6647C32.6172 21.2222 32.748 19.6112 32.3598 18.0861C31.9716 16.561 31.0866 15.2086 29.8444 14.2424C28.6023 13.2761 27.0737 12.751 25.5 12.75H23.715C23.2862 11.0914 22.487 9.55164 21.3774 8.2464C20.2679 6.94117 18.8769 5.90445 17.309 5.21419C15.7411 4.52393 14.0371 4.19809 12.3252 4.26116C10.6132 4.32424 8.93784 4.77459 7.425 5.57836C5.91215 6.38212 4.6012 7.51839 3.59071 8.90174C2.58022 10.2851 1.89647 11.8795 1.59089 13.5651C1.2853 15.2508 1.36581 16.9837 1.82638 18.6338C2.28695 20.2838 3.11559 21.808 4.25 23.0917" stroke="#606266" stroke-width="2" stroke-linecap="round" stroke-linejoin="round"/>
<path d="M22.6667 22.6667L17 17L11.3333 22.6667" stroke="#606266" stroke-width="2" stroke-linecap="round" stroke-linejoin="round"/>
</svg>
